<svg width="69" height="69" viewBox="0 0 69 69" fill="none" xmlns="http://www.w3.org/2000/svg">
<path d="M54.625 19.1475L37.145 9.05622C36.3418 8.58909 35.4292 8.34302 34.5 8.34302C33.5708 8.34302 32.6582 8.58909 31.855 9.05622L14.375 19.1475C13.5018 19.6516 12.7764 20.3766 12.2718 21.2496C11.7672 22.1226 11.501 23.1129 11.5 24.1212C11.4972 31.1893 13.3556 38.1336 16.8884 44.2554C20.4212 50.3773 25.5038 55.4609 31.625 58.995L33.0625 59.8287C33.4996 60.0811 33.9953 60.2139 34.5 60.2139C35.0047 60.2139 35.5004 60.0811 35.9375 59.8287L37.375 58.995C43.4962 55.4609 48.5788 50.3773 52.1116 44.2554C55.6444 38.1336 57.5029 31.1893 57.5 24.1212C57.499 23.1129 57.2328 22.1226 56.7282 21.2496C56.2236 20.3766 55.4982 19.6516 54.625 19.1475ZM47.5238 27.3987L33.695 41.2275C33.2876 41.6268 32.7417 41.8533 32.1713 41.86C31.602 41.8476 31.0582 41.6218 30.6475 41.2275L24.3513 34.9312C23.9475 34.5269 23.7206 33.9789 23.7206 33.4075C23.7206 32.8361 23.9475 32.288 24.3513 31.8837C24.5495 31.6803 24.7864 31.5186 25.0481 31.4082C25.3098 31.2978 25.591 31.241 25.875 31.241C26.159 31.241 26.4402 31.2978 26.7019 31.4082C26.9636 31.5186 27.2005 31.6803 27.3988 31.8837L32.1713 36.6562L44.4763 24.3512C44.885 23.9703 45.4256 23.763 45.9843 23.7728C46.5429 23.7827 47.0759 24.009 47.4709 24.4041C47.866 24.7991 48.0923 25.3321 48.1021 25.8907C48.112 26.4493 47.9046 26.99 47.5238 27.3987Z" fill="#1F4036"/>
</svg>
