<svg width="69" height="69" viewBox="0 0 69 69" fill="none" xmlns="http://www.w3.org/2000/svg">
<path d="M47.4375 42.55C45.4473 42.55 43.5018 43.1401 41.8471 44.2458C40.1923 45.3515 38.9026 46.9231 38.141 48.7617C37.3794 50.6004 37.1801 52.6237 37.5684 54.5756C37.9566 56.5275 38.915 58.3205 40.3222 59.7277C41.7295 61.135 43.5225 62.0934 45.4744 62.4816C47.4263 62.8699 49.4496 62.6706 51.2883 61.909C53.1269 61.1474 54.6985 59.8577 55.8042 58.2029C56.9098 56.5481 57.5 54.6027 57.5 52.6125C57.5 49.9437 56.4399 47.3843 54.5528 45.4972C52.6657 43.6101 50.1062 42.55 47.4375 42.55ZM51.06 53.6762L46.115 56.5512C45.9272 56.6631 45.7132 56.7231 45.4946 56.7252C45.2761 56.7274 45.0609 56.6715 44.8709 56.5634C44.681 56.4553 44.5231 56.2988 44.4134 56.1098C44.3036 55.9208 44.246 55.706 44.2463 55.4875V49.7375C44.246 49.5189 44.3036 49.3042 44.4134 49.1152C44.5231 48.9262 44.681 48.7697 44.8709 48.6615C45.0609 48.5534 45.2761 48.4976 45.4946 48.4997C45.7132 48.5019 45.9272 48.5619 46.115 48.6737L51.06 51.5487C51.2523 51.652 51.4129 51.8055 51.525 51.9928C51.637 52.1801 51.6961 52.3942 51.6961 52.6125C51.6961 52.8307 51.637 53.0449 51.525 53.2322C51.4129 53.4195 51.2523 53.573 51.06 53.6762Z" fill="#1F4036"/>
<path d="M47.4375 38.2375C50.9895 38.2295 54.4156 39.5527 57.04 41.9463C57.3553 40.4432 57.5095 38.9108 57.5 37.375C57.5 32.826 56.1511 28.3792 53.6238 24.5969C51.0965 20.8146 47.5044 17.8666 43.3017 16.1258C39.099 14.385 34.4745 13.9295 30.0129 14.8169C25.5514 15.7044 21.4532 17.8949 18.2366 21.1116C15.0199 24.3282 12.8294 28.4264 11.9419 32.8879C11.0545 37.3495 11.51 41.974 13.2508 46.1767C14.9916 50.3794 17.9396 53.9715 21.7219 56.4988C25.5042 59.0261 29.951 60.375 34.5 60.375H35.3338C33.9401 58.2028 33.1569 55.6954 33.0665 53.1162C32.9761 50.5369 33.5817 47.9809 34.8198 45.7164C36.058 43.4519 37.8829 41.5625 40.103 40.2466C42.3232 38.9306 44.8567 38.2366 47.4375 38.2375ZM36.6563 32.2575C36.6563 32.8294 36.4291 33.3778 36.0247 33.7822C35.6203 34.1866 35.0719 34.4138 34.5 34.4138C33.9281 34.4138 33.3797 34.1866 32.9753 33.7822C32.5709 33.3778 32.3438 32.8294 32.3438 32.2575V22.0513C32.3438 21.4794 32.5709 20.9309 32.9753 20.5266C33.3797 20.1222 33.9281 19.895 34.5 19.895C35.0719 19.895 35.6203 20.1222 36.0247 20.5266C36.4291 20.9309 36.6563 21.4794 36.6563 22.0513V32.2575Z" fill="#1F4036"/>
<path d="M28.75 10.7812H40.25C40.8219 10.7812 41.3703 10.5541 41.7747 10.1497C42.1791 9.74532 42.4062 9.19687 42.4062 8.625C42.4062 8.05313 42.1791 7.50468 41.7747 7.1003C41.3703 6.69593 40.8219 6.46875 40.25 6.46875H28.75C28.1781 6.46875 27.6297 6.69593 27.2253 7.1003C26.8209 7.50468 26.5938 8.05313 26.5938 8.625C26.5938 9.19687 26.8209 9.74532 27.2253 10.1497C27.6297 10.5541 28.1781 10.7812 28.75 10.7812Z" fill="#1F4036"/>
</svg>
