<svg width="36" height="36" viewBox="0 0 36 36" fill="none" xmlns="http://www.w3.org/2000/svg">
<path d="M6.79503 14.3251L8.89503 27C9.03165 27.7229 9.41693 28.3751 9.98406 28.8436C10.5512 29.3121 11.2644 29.5673 12 29.565H24C24.7357 29.5673 25.4489 29.3121 26.016 28.8436C26.5831 28.3751 26.9684 27.7229 27.105 27L29.205 14.4001C29.2937 13.943 29.28 13.4719 29.1648 13.0208C29.0496 12.5697 28.8359 12.1497 28.539 11.7911C28.242 11.4325 27.8693 11.1441 27.4476 10.9468C27.0258 10.7495 26.5656 10.6482 26.1 10.65H9.90003C9.44202 10.6502 8.98955 10.7502 8.57415 10.9431C8.15875 11.136 7.79041 11.4172 7.49482 11.7671C7.19923 12.117 6.98348 12.5271 6.86262 12.9688C6.74176 13.4106 6.7187 13.8734 6.79503 14.3251Z" stroke="#0A403A" stroke-width="1.5" stroke-linecap="round" stroke-linejoin="round"/>
<path d="M15.1801 19.41V25.035" stroke="#0A403A" stroke-width="1.5" stroke-linecap="round" stroke-linejoin="round"/>
<path d="M20.8199 19.41V25.035" stroke="#0A403A" stroke-width="1.5" stroke-linecap="round" stroke-linejoin="round"/>
<path d="M6.97498 15.375H28.92" stroke="#0A403A" stroke-width="1.5" stroke-linecap="round" stroke-linejoin="round"/>
<path d="M11.67 10.6651L14.49 6.43506" stroke="#0A403A" stroke-width="1.5" stroke-linecap="round" stroke-linejoin="round"/>
<path d="M24.33 10.6651L21.51 6.43506" stroke="#0A403A" stroke-width="1.5" stroke-linecap="round" stroke-linejoin="round"/>
</svg>
